<svg xmlns="http://www.w3.org/2000/svg" viewBox="0 0 600 480" fill="none">
  <path fill="#FF6F61" d="M90 125c42-62 103-27 151-57 62-39 125-9 145 54 17 53 83 51 105 107 24 63-20 99-5 153 17 61-35 104-94 95-49-8-70 46-129 20-53-23-52-76-104-85-65-12-92-64-64-119 21-41-38-112-5-168Z" transform="translate(17 18)"/>
  <path fill="#FF3D94" d="M90 125c42-62 103-27 151-57 62-39 125-9 145 54 17 53 83 51 105 107 24 63-20 99-5 153 17 61-35 104-94 95-49-8-70 46-129 20-53-23-52-76-104-85-65-12-92-64-64-119 21-41-38-112-5-168Z"/>
</svg>
