<svg xmlns="http://www.w3.org/2000/svg" viewBox="0 0 600 480" fill="none">
  <path fill="#FFC61A" d="M65 282C23 218 87 167 143 151c49-14 45-84 111-95 69-12 99 51 152 58 72 9 129 66 113 133-13 52 50 90 17 143-36 59-97 35-145 61-57 31-113 12-146-33-31-42-96-4-139-48-35-36-20-62-41-88Z" transform="translate(18 20)"/>
  <path fill="#00C8BE" d="M65 282C23 218 87 167 143 151c49-14 45-84 111-95 69-12 99 51 152 58 72 9 129 66 113 133-13 52 50 90 17 143-36 59-97 35-145 61-57 31-113 12-146-33-31-42-96-4-139-48-35-36-20-62-41-88Z"/>
</svg>
