<svg xmlns="http://www.w3.org/2000/svg" viewBox="0 0 600 480" fill="none">
  <path fill="#FF6F61" d="M83 168c38-67 91-53 147-91 55-37 112-5 139 47 31 59 92 40 124 99 30 57-8 99 7 151 16 56-34 101-91 91-52-9-83 39-137 15-59-26-52-77-109-88-63-12-91-64-61-117 22-39-47-57-19-107Z" transform="translate(18 20)"/>
  <path fill="#FFC61A" d="M83 168c38-67 91-53 147-91 55-37 112-5 139 47 31 59 92 40 124 99 30 57-8 99 7 151 16 56-34 101-91 91-52-9-83 39-137 15-59-26-52-77-109-88-63-12-91-64-61-117 22-39-47-57-19-107Z"/>
</svg>
