<?xml version="1.0" standalone="no"?>
<svg xmlns="http://www.w3.org/2000/svg" 
     viewBox="410 491 4408 1224">
  <g transform="translate(0,1856) scale(0.1,-0.1)">

    <!-- PINK -->
    <path d="M4516 13255 c-37 -8 -68 -22 -84 -38 -30 -31 -44 -11263 -14 -11332
30 -69 112 -92 265 -74 74 8 237 8 675 -2 920 -22 1628 -19 1671 6 64 38 76
78 76 260 1 342 -16 1340 -26 1530 -19 368 -10 3955 11 4129 14 118 64 133
115 35 8 -14 29 -44 47 -66 56 -69 182 -247 304 -428 26 -38 62 -88 80 -110
17 -22 42 -60 54 -85 13 -25 42 -67 64 -95 23 -27 47 -61 54 -75 7 -14 36 -55
65 -92 91 -116 164 -221 190 -273 14 -27 35 -59 47 -70 12 -11 38 -49 57 -85
20 -36 51 -86 69 -112 18 -25 42 -64 52 -85 11 -21 40 -65 65 -98 25 -33 55
-80 68 -105 12 -25 42 -72 65 -105 23 -33 49 -76 59 -95 10 -19 35 -60 57 -90
21 -30 71 -104 110 -165 40 -60 120 -183 179 -272 60 -89 118 -181 130 -205
12 -24 36 -63 54 -88 18 -25 45 -69 59 -98 15 -29 46 -79 70 -110 24 -31 53
-82 66 -112 12 -30 45 -80 74 -111 62 -68 122 -145 202 -264 33 -49 82 -121
109 -160 27 -38 70 -101 96 -140 26 -38 56 -78 67 -89 12 -10 33 -50 48 -88
43 -113 103 -168 183 -168 62 0 98 43 178 208 14 30 57 102 97 162 94 143 106
162 161 250 26 41 62 92 80 115 18 22 45 64 59 93 15 30 45 73 67 96 21 24 50
67 63 97 13 30 39 74 57 99 19 25 50 72 69 106 47 83 128 207 167 258 18 22
47 66 64 96 18 30 50 77 71 104 21 27 50 72 63 100 13 29 40 70 58 91 19 22
47 65 62 95 15 29 35 65 44 80 10 14 35 52 57 85 21 33 55 80 75 105 20 25 46
65 56 90 17 39 82 141 181 285 15 22 46 73 69 113 23 41 57 93 76 115 18 23
48 68 66 99 18 32 36 60 41 63 6 3 30 38 56 78 25 40 59 86 74 102 15 17 45
57 66 90 20 33 50 75 66 93 15 18 34 47 42 65 7 18 37 61 65 95 28 35 59 78
67 95 9 18 31 53 50 79 18 26 44 68 57 95 14 26 39 65 56 86 17 22 46 71 65
111 69 145 173 168 206 44 12 -44 6 -5671 -5 -5701 -14 -33 15 -134 50 -174
31 -36 31 -36 1291 -34 692 1 1275 4 1294 7 65 10 130 26 130 32 0 35 -482 40
-1975 23 -383 -5 -667 -4 -678 1 -52 27 -49 -185 -46 2920 4 2955 4 3019 -2
3153 -4 110 5 147 51 200 21 25 83 111 136 192 54 82 115 168 136 192 21 24
54 69 75 100 20 31 73 93 117 137 45 45 131 134 191 199 230 245 393 410 490
494 55 47 143 129 196 181 53 52 131 124 174 160 111 94 207 176 283 244 37
32 82 65 99 73 18 7 61 39 96 71 35 31 81 63 103 71 21 7 50 21 64 31 14 9 57
28 97 42 40 15 89 40 110 57 21 16 52 33 68 37 17 4 40 14 53 22 21 14 25 13
47 -8 49 -46 50 -64 46 -520 -17 -1837 -15 -3406 5 -3655 5 -65 7 -70 29 -71
34 -2 40 37 24 159 -14 103 -21 2875 -9 3677 2 179 1 496 -2 705 -8 444 -24
2325 -20 2405 6 144 -31 156 -434 140 -295 -12 -457 -30 -549 -61 -53 -18
-118 -30 -375 -69 -36 -5 -96 -22 -135 -38 -38 -16 -117 -41 -175 -57 -58 -15
-143 -47 -190 -71 -47 -23 -114 -50 -150 -60 -36 -10 -92 -30 -125 -44 -129
-58 -221 -104 -260 -128 -22 -14 -76 -43 -120 -65 -101 -49 -305 -170 -368
-218 -27 -20 -66 -41 -86 -48 -21 -6 -58 -28 -82 -49 -24 -22 -64 -52 -89 -67
-25 -16 -75 -54 -111 -84 -66 -56 -107 -88 -223 -171 -289 -206 -787 -676
-922 -870 -22 -31 -56 -76 -76 -100 -63 -75 -105 -131 -161 -215 -30 -44 -61
-86 -71 -94 -9 -8 -33 -44 -53 -80 -19 -36 -52 -91 -72 -121 -58 -87 -243
-470 -293 -605 -16 -44 -46 -118 -67 -165 -21 -47 -53 -127 -70 -177 -17 -51
-42 -115 -55 -142 -14 -26 -37 -95 -51 -152 -15 -57 -39 -132 -55 -165 -34
-73 -53 -142 -75 -284 -22 -141 -31 -166 -78 -217 -83 -91 -109 -53 -162 241
-9 48 -32 131 -51 185 -20 53 -46 143 -59 201 -13 58 -37 137 -53 175 -17 39
-40 102 -51 142 -12 40 -44 120 -71 178 -27 58 -59 135 -70 171 -11 35 -73
174 -138 307 -65 133 -124 256 -131 274 -7 17 -22 40 -33 50 -11 10 -29 36
-40 58 -28 53 -157 247 -208 311 -23 27 -49 63 -59 80 -10 16 -33 43 -51 59
-17 17 -49 59 -70 95 -40 68 -141 188 -198 235 -18 15 -42 45 -52 66 -11 21
-37 50 -57 65 -21 16 -59 49 -84 74 -68 67 -158 144 -230 197 -35 26 -86 67
-114 93 -27 25 -68 59 -90 75 -39 29 -180 156 -265 239 -25 24 -63 54 -84 66
-22 12 -58 37 -81 56 -23 18 -75 49 -116 67 -41 19 -94 48 -119 65 -25 16 -62
37 -83 46 -21 8 -59 29 -84 46 -25 17 -73 45 -107 62 -33 17 -88 50 -121 73
-65 46 -107 66 -197 95 -32 10 -81 33 -110 53 -29 19 -82 43 -118 52 -36 10
-105 38 -155 61 -49 24 -129 54 -178 68 -48 14 -118 39 -156 56 -82 35 -168
56 -271 65 -41 4 -153 24 -248 46 -95 21 -212 43 -260 48 -586 66 -609 67
-706 46z" fill="#FF3D94"/>
    <path d="M24289 13216 c-64 -48 -61 -11 -65 -666 -2 -327 -9 -1022 -14 -1545
-10 -937 -11 -1213 -7 -2930 2 -880 -6 -1741 -18 -1893 -5 -61 -2 -120 14
-230 29 -197 39 -603 29 -1142 -5 -228 -8 -444 -7 -480 1 -36 1 -195 -1 -355
-2 -295 -2 -374 2 -525 2 -79 -26 -245 -52 -305 -5 -11 -14 -51 -20 -88 -7
-37 -22 -83 -35 -101 -22 -33 -22 -33 -4 -102 34 -126 50 -266 65 -579 19
-370 19 -349 -9 -405 -22 -45 -22 -45 353 -43 206 1 470 -3 585 -8 211 -9
1038 -14 1365 -8 195 4 214 10 247 72 17 30 18 133 18 1938 0 1906 0 1906 28
1942 35 47 75 67 143 74 30 3 54 9 54 13 0 9 -34 40 -44 40 -16 0 -82 34 -103
53 -72 64 -102 292 -54 419 15 41 21 171 11 243 -6 45 -5 171 2 356 9 251 9
301 -6 407 -29 216 1 545 54 577 6 3 10 14 10 24 0 17 53 71 111 113 24 17 24
17 -9 18 -171 2 -208 63 -198 324 17 436 24 1994 11 2246 -8 153 6 191 78 205
84 17 86 25 18 60 -62 31 -94 70 -86 103 3 14 6 178 5 366 0 222 4 366 12 413
12 73 3 211 -33 508 -8 65 -8 143 -1 281 6 105 9 204 5 220 -3 16 -6 78 -5
138 0 92 -3 113 -21 143 -26 44 -1 72 82 94 167 43 -29 54 -719 43 -636 -10
-1398 -11 -1600 -1 -145 7 -145 7 -191 -27z" fill="#FF3D94"/>
    <path d="M47841 10993 c0 -12 -5 -25 -11 -28 -5 -3 -10 -18 -9 -33 1 -26 1
-26 15 7 8 18 13 43 11 55 -4 21 -4 21 -6 -1z" fill="#FF3D94"/>
    <path d="M40376 6398 c-3 -57 -4 -492 -1 -968 3 -476 7 -1470 10 -2209 6
-1520 -1 -1401 88 -1445 46 -22 -5 -22 2532 -12 1462 5 2002 11 2915 31 189 4
1509 5 1522 1 43 -15 340 -15 368 -1 94 49 91 -5 70 1115 -23 1300 -19 1238
-85 1268 -82 37 -330 40 -3140 35 -1672 -3 -1710 -1 -1741 89 -26 77 -24 1934
3 1985 34 64 7 81 -44 27 -36 -39 -36 -39 -28 -889 11 -1166 10 -1148 32
-1193 34 -70 -153 -65 2438 -67 1814 -2 2352 -5 2392 -14 100 -24 104 -39 104
-456 0 -159 5 -420 10 -580 5 -159 10 -396 10 -525 0 -129 5 -329 10 -443 16
-330 41 -313 -419 -296 -333 12 -1800 8 -1821 -5 -5 -4 -569 -6 -1253 -7 -684
0 -1706 -6 -2273 -12 -1317 -15 -1571 -14 -1605 11 -54 39 -62 75 -50 228 7
88 9 290 5 549 -11 697 -13 3613 -3 3709 7 65 6 102 -3 133 -20 74 -35 53 -43
-59z" fill="#FF3D94"/>
    <path d="M15627 2972 c9 -286 17 -298 97 -149 25 48 25 48 -5 97 -16 26 -36
70 -44 96 -31 106 -53 87 -48 -44z" fill="#FF3D94"/>

    <!-- YELLOW -->
    <path d="M40526 13270 c-53 -9 -89 -31 -118 -71 -33 -45 -48 -1179 -28 -2054
16 -656 16 -1482 2 -2185 -23 -1133 -18 -2460 9 -2460 17 0 19 86 23 1065 2
550 9 1221 16 1490 8 343 9 765 3 1405 -18 2028 -12 2685 25 2722 32 33 32 33
355 32 177 0 1798 -3 3602 -6 2194 -4 3288 -9 3305 -16 63 -25 70 -46 60 -172
-5 -70 -5 -135 1 -165 13 -67 13 -535 0 -706 -28 -382 -25 -671 11 -999 22
-203 23 -187 -9 -219 -42 -41 -87 -51 -296 -61 -100 -5 -267 -14 -372 -21
-299 -18 -1282 -4 -1425 20 -44 8 -278 12 -720 11 -723 0 -941 -9 -1295 -50
-44 -5 -191 -9 -326 -9 -341 -1 -426 -19 -453 -94 -12 -34 -39 -710 -34 -867
0 -8 -3 -118 -6 -245 -25 -974 -38 -940 338 -940 122 0 340 6 486 14 330 17
1904 10 1980 -10 31 -8 196 -12 532 -12 487 0 487 0 511 -26 37 -40 37 -15 38
-1136 1 -1227 14 -1098 -113 -1101 -40 0 -289 -4 -553 -8 -264 -4 -694 -11
-955 -16 -261 -5 -819 -7 -1240 -3 -920 8 -911 8 -939 -6 -43 -24 -17 -35 85
-36 54 -1 236 -7 404 -14 376 -15 1526 -8 2150 13 239 8 590 20 780 26 359 12
383 15 422 57 42 45 39 2099 -4 2213 -34 91 -28 90 -558 95 -239 2 -604 9
-810 15 -481 13 -1588 10 -1880 -6 -600 -33 -632 -15 -616 351 4 71 8 402 11
735 3 337 9 640 15 685 6 44 13 98 16 120 16 134 54 146 509 159 77 3 273 13
435 22 376 23 1627 26 1802 5 245 -30 1854 -14 2000 20 71 16 112 48 116 89 2
19 8 40 14 47 6 8 9 232 8 636 0 401 3 674 11 763 11 128 -1 672 -17 780 -13
89 -41 94 -529 99 -225 2 -630 7 -900 11 -608 9 -2557 8 -3115 0 -366 -6
-1852 5 -2485 18 -126 3 -252 1 -279 -4z" fill="#FFC61A"/>
    <path d="M19090 13250 c-155 -9 -178 -28 -290 -251 -46 -90 -93 -180 -105
-199 -12 -19 -34 -66 -50 -105 -15 -38 -40 -95 -55 -125 -15 -30 -35 -78 -44
-106 -9 -28 -32 -77 -51 -109 -19 -31 -49 -103 -66 -159 -17 -55 -45 -139 -64
-186 -18 -47 -40 -110 -50 -140 -9 -30 -45 -113 -80 -185 -81 -169 -119 -258
-160 -375 -18 -52 -51 -123 -74 -157 -23 -34 -55 -97 -71 -139 -16 -43 -40
-93 -53 -113 -13 -20 -36 -74 -52 -121 -15 -47 -46 -121 -67 -165 -22 -44 -49
-102 -60 -130 -10 -27 -34 -79 -52 -115 -19 -36 -44 -96 -55 -134 -22 -70
-120 -265 -174 -345 -17 -24 -45 -81 -63 -125 -17 -45 -44 -110 -59 -146 -28
-69 -134 -285 -166 -336 -10 -17 -32 -71 -48 -120 -27 -80 -115 -265 -199
-414 -16 -30 -44 -97 -62 -148 -17 -51 -44 -111 -60 -133 -16 -22 -36 -64 -46
-92 -9 -29 -25 -68 -34 -87 -10 -19 -39 -96 -65 -170 -26 -74 -55 -151 -64
-170 -24 -48 -120 -228 -141 -265 -10 -16 -28 -64 -40 -105 -12 -41 -35 -100
-52 -130 -87 -158 -130 -246 -173 -350 -26 -63 -67 -154 -91 -201 -24 -48 -44
-90 -44 -93 0 -4 -24 -58 -54 -119 -30 -62 -77 -177 -106 -257 -80 -223 -120
-282 -164 -241 -32 30 -44 -32 -27 -131 9 -57 17 -2402 8 -2853 -1 -95 2 -165
10 -192 13 -47 60 -133 73 -133 20 0 69 140 100 285 21 100 132 354 195 445
13 19 43 80 65 134 56 135 95 210 145 282 23 34 57 88 74 121 18 33 64 96 103
139 39 44 103 120 144 170 40 50 133 147 206 215 73 68 193 185 268 260 74 75
160 154 190 176 30 22 66 53 80 68 36 40 119 91 193 119 36 13 109 53 163 88
139 90 159 102 249 147 162 81 211 119 186 145 -27 29 -27 52 3 90 13 17 33
50 45 73 12 24 48 79 81 123 48 63 71 107 110 212 45 118 67 163 148 298 44
73 59 107 71 155 11 46 33 94 186 410 30 61 62 133 73 160 38 93 83 200 112
260 34 72 51 115 100 260 20 61 63 162 96 225 80 157 128 261 159 345 14 39
40 95 58 125 18 30 46 87 61 125 16 39 39 83 50 100 35 49 44 71 72 171 18 63
41 116 65 152 21 30 52 91 70 135 40 101 153 275 186 288 58 22 115 -15 147
-98 10 -26 45 -94 77 -150 32 -55 70 -130 85 -165 14 -34 35 -75 46 -90 10
-15 37 -85 60 -155 50 -159 74 -219 103 -258 34 -45 88 -158 124 -260 57 -158
185 -463 214 -509 7 -12 24 -50 37 -86 13 -36 47 -114 75 -175 29 -60 57 -127
64 -147 7 -20 24 -54 38 -75 14 -21 43 -85 64 -142 21 -57 54 -133 74 -170 37
-71 135 -279 135 -287 0 -32 160 -417 200 -480 16 -27 54 -98 83 -159 29 -60
64 -130 78 -154 54 -98 52 -93 40 -114 -14 -22 -16 -19 29 -45 19 -11 73 -43
119 -71 46 -28 107 -59 136 -70 73 -27 185 -85 278 -143 43 -27 111 -65 151
-84 53 -25 99 -59 172 -127 54 -51 125 -112 157 -135 32 -24 138 -118 236
-210 98 -92 202 -187 231 -211 28 -24 67 -68 86 -97 41 -63 121 -171 180 -240
23 -28 72 -101 107 -162 36 -61 81 -131 100 -154 45 -55 88 -130 112 -193 10
-27 47 -92 82 -144 82 -120 123 -202 161 -321 33 -104 52 -150 114 -282 47
-100 48 -101 70 -54 38 79 39 117 43 1591 2 792 6 1485 10 1540 7 100 7 100
-15 80 -43 -39 -129 79 -290 400 -61 121 -122 240 -135 265 -14 25 -35 77 -47
115 -25 83 -52 145 -118 280 -27 55 -72 161 -99 235 -56 155 -129 323 -200
460 -28 52 -59 130 -71 172 -25 92 -105 256 -170 353 -27 39 -55 93 -63 120
-8 28 -30 82 -49 120 -20 39 -43 95 -53 125 -9 30 -40 88 -67 128 -27 41 -66
121 -88 178 -22 58 -51 126 -64 152 -14 26 -40 79 -57 117 -17 39 -47 103 -65
142 -18 40 -40 99 -49 132 -8 32 -36 98 -62 147 -26 49 -61 120 -78 159 -17
38 -43 90 -57 115 -15 25 -38 79 -51 121 -36 112 -93 241 -157 354 -31 55 -66
132 -79 172 -12 39 -37 102 -55 140 -18 37 -37 79 -41 93 -4 14 -36 79 -70
146 -35 66 -72 155 -84 198 -12 42 -40 114 -62 159 -23 45 -50 106 -60 136
-11 30 -32 75 -49 101 -16 25 -49 93 -74 151 -24 57 -65 149 -91 204 -26 55
-56 125 -68 155 -11 30 -33 78 -48 105 -15 28 -43 93 -63 146 -19 53 -45 114
-59 136 -13 21 -36 70 -50 108 -14 39 -36 90 -50 115 -14 25 -42 92 -62 150
-57 161 -91 211 -169 253 -41 22 -1421 35 -1746 17z" fill="#FFC61A"/>
    <path d="M26878 13242 c-16 -2 -28 -9 -28 -17 0 -16 236 -22 1121 -30 564 -5
625 -7 725 -25 60 -12 201 -36 314 -55 217 -37 266 -50 370 -98 55 -25 112
-44 255 -84 11 -3 25 -9 30 -13 21 -16 411 -210 422 -210 6 0 39 -20 74 -44
35 -24 89 -56 119 -71 30 -15 73 -42 95 -60 23 -18 59 -40 80 -50 44 -18 192
-111 258 -162 23 -18 65 -50 93 -72 28 -22 75 -70 104 -107 29 -37 85 -101
125 -143 40 -42 83 -92 96 -112 48 -73 125 -174 162 -216 46 -50 175 -299 206
-398 13 -38 31 -79 41 -90 25 -28 48 -77 76 -159 13 -38 37 -93 54 -122 16
-29 38 -84 49 -121 22 -80 67 -202 81 -217 23 -29 52 -170 60 -301 5 -77 16
-194 25 -260 26 -203 13 -772 -19 -824 -4 -5 -11 -83 -16 -173 -12 -184 -30
-284 -65 -343 -13 -23 -31 -77 -40 -120 -27 -134 -63 -245 -94 -294 -16 -25
-38 -81 -49 -124 -13 -49 -33 -97 -56 -130 -20 -29 -47 -87 -60 -130 -13 -43
-42 -106 -64 -140 -23 -34 -51 -89 -63 -122 -12 -33 -37 -76 -54 -95 -18 -19
-51 -61 -73 -92 -23 -31 -46 -59 -52 -63 -5 -3 -43 -47 -84 -98 -103 -128
-314 -328 -400 -380 -17 -11 -47 -34 -66 -52 -19 -19 -57 -44 -85 -56 -27 -12
-72 -41 -100 -64 -27 -23 -70 -55 -94 -70 -110 -68 -169 -174 -136 -247 8 -18
24 -66 36 -106 12 -41 44 -111 70 -157 26 -46 61 -122 78 -169 17 -47 37 -98
45 -114 8 -15 29 -72 47 -127 17 -55 50 -138 72 -185 22 -47 52 -123 68 -169
16 -46 39 -102 52 -125 14 -22 39 -78 57 -123 18 -46 51 -116 74 -156 23 -40
52 -102 65 -138 13 -35 33 -80 46 -100 13 -21 31 -61 40 -90 30 -96 38 -114
65 -144 35 -39 44 -56 81 -162 17 -48 46 -114 65 -145 19 -31 46 -92 60 -135
14 -43 42 -105 63 -138 21 -33 54 -104 75 -157 21 -54 41 -100 46 -103 4 -3
20 -42 35 -87 30 -91 54 -143 95 -203 14 -22 39 -76 54 -120 16 -44 39 -102
53 -130 13 -27 35 -85 49 -127 13 -42 41 -101 60 -130 48 -71 60 -96 68 -143
15 -82 27 -115 61 -155 19 -23 38 -54 42 -69 9 -39 71 -192 93 -228 11 -18 32
-70 48 -115 16 -46 41 -101 55 -122 73 -106 30 -130 -226 -133 -489 -4 -808
-12 -1027 -23 -327 -17 -1176 -8 -1217 13 -50 27 -71 59 -93 147 -15 58 -35
107 -65 153 -30 48 -48 90 -60 145 -10 42 -32 106 -49 142 -18 36 -47 103 -66
150 -18 47 -53 128 -78 180 -24 52 -53 119 -63 147 -10 29 -33 81 -52 115 -20
35 -54 110 -78 168 -23 58 -53 121 -65 140 -13 19 -31 64 -40 100 -8 36 -26
83 -38 105 -13 22 -32 56 -42 75 -11 19 -30 65 -41 101 -12 36 -37 92 -57 125
-19 33 -46 102 -61 159 -15 55 -42 128 -61 162 -19 34 -48 99 -63 143 -16 45
-51 120 -78 168 -27 48 -55 103 -63 122 -7 19 -33 68 -58 109 -24 41 -53 99
-63 128 -10 30 -34 81 -54 113 -19 32 -42 77 -50 100 -8 23 -35 72 -60 109
-24 37 -57 104 -73 149 -16 45 -41 99 -56 120 -14 21 -42 77 -62 123 -19 46
-43 93 -52 104 -25 29 -55 74 -81 121 -27 47 -46 61 -109 76 -77 19 -765 29
-782 12 -25 -25 17 -43 116 -49 54 -3 124 -7 154 -10 30 -2 138 -1 240 3 203
9 285 -1 327 -40 27 -25 141 -231 173 -310 12 -32 36 -79 52 -105 17 -26 41
-78 54 -115 12 -36 43 -96 68 -133 25 -37 46 -72 46 -78 0 -17 190 -407 225
-463 51 -80 130 -239 161 -324 14 -41 35 -86 44 -100 18 -25 81 -171 95 -220
4 -14 24 -59 45 -100 20 -41 49 -113 64 -158 15 -46 38 -102 53 -125 14 -22
38 -80 54 -129 16 -48 45 -120 64 -159 20 -39 45 -101 57 -138 11 -36 45 -118
75 -181 30 -63 63 -138 73 -165 9 -28 31 -77 47 -110 17 -33 44 -102 61 -153
17 -51 40 -106 52 -122 11 -16 36 -70 54 -120 19 -50 53 -121 75 -158 22 -37
51 -104 64 -150 27 -93 52 -126 116 -154 57 -26 811 -38 1176 -18 127 7 446
14 710 16 590 4 649 11 676 82 21 54 -42 219 -175 460 -19 34 -42 88 -51 120
-9 31 -35 85 -57 120 -24 36 -50 96 -63 143 -13 45 -42 117 -65 160 -22 44
-50 108 -60 143 -11 35 -62 151 -114 257 -52 107 -104 228 -116 269 -22 76
-123 292 -191 410 -21 36 -48 92 -60 125 -12 33 -44 101 -71 151 -26 50 -59
124 -73 163 -13 40 -38 88 -54 107 -18 19 -39 62 -51 102 -11 38 -43 112 -70
164 -28 53 -59 122 -70 154 -11 33 -33 84 -49 114 -16 30 -34 73 -41 95 -7 22
-34 87 -60 145 -26 58 -87 213 -135 345 -60 166 -118 301 -187 440 -102 203
-140 309 -131 359 10 53 171 202 299 276 24 14 72 51 106 81 35 30 111 93 169
141 139 113 345 330 421 443 181 267 223 334 246 400 13 39 41 106 62 150 20
44 45 105 55 135 10 30 33 85 51 121 18 36 40 92 49 125 9 32 36 118 60 189
51 150 69 229 89 393 8 64 22 149 30 189 46 215 59 670 26 918 -10 83 -24 188
-30 235 -23 182 -64 347 -106 431 -13 26 -35 92 -49 148 -23 92 -128 321 -188
412 -9 14 -30 65 -47 113 -38 114 -141 309 -199 379 -25 31 -80 97 -121 147
-41 51 -95 116 -120 144 -25 29 -80 93 -123 143 -106 123 -194 206 -247 233
-25 12 -61 35 -80 50 -19 14 -62 42 -95 60 -33 18 -87 52 -120 75 -33 23 -80
52 -105 65 -25 12 -56 33 -70 45 -34 32 -305 171 -360 185 -25 6 -70 25 -100
42 -30 17 -95 44 -145 60 -49 16 -129 47 -177 69 -48 22 -124 48 -170 59 -46
10 -135 30 -198 44 -127 29 -249 51 -325 60 -27 3 -108 13 -180 22 -119 15
-1604 29 -1707 16z" fill="#FFC61A"/>
    <path d="M27860 10930 c-91 -4 -253 -14 -360 -20 -151 -10 -240 -10 -394 -1
-186 11 -236 7 -214 -15 25 -25 323 -34 637 -19 602 28 925 17 1024 -35 33
-17 95 -44 136 -59 132 -47 419 -288 496 -416 67 -112 97 -169 114 -221 11
-34 36 -98 56 -142 110 -250 101 -842 -16 -1074 -17 -35 -43 -94 -56 -133 -42
-125 -171 -290 -266 -340 -28 -15 -77 -43 -107 -62 -180 -113 -240 -142 -336
-167 -55 -14 -124 -33 -154 -41 -30 -9 -116 -20 -190 -25 -74 -5 -148 -11
-165 -14 -16 -3 -131 -8 -254 -11 -123 -3 -267 -10 -320 -16 -53 -5 -192 -8
-309 -7 -179 3 -214 1 -222 -12 -17 -27 13 -29 514 -24 758 6 934 18 1055 68
32 14 81 30 108 36 52 12 112 44 163 87 17 14 57 38 88 53 32 15 66 37 77 50
11 12 43 33 70 47 57 28 234 205 265 265 11 20 31 66 45 103 13 36 33 78 44
93 37 53 49 133 87 576 50 580 -283 1180 -746 1345 -36 13 -91 41 -123 62
-101 69 -326 90 -747 69z" fill="#FFC61A"/>

    <!-- TEAL -->
    <path d="M35820 13343 c-182 -18 -321 -36 -373 -47 -217 -48 -386 -95 -459
-127 -37 -16 -111 -41 -165 -55 -54 -14 -136 -44 -183 -68 -47 -24 -114 -52
-150 -64 -36 -12 -87 -38 -114 -57 -26 -19 -78 -44 -114 -56 -36 -12 -93 -42
-126 -66 -33 -24 -85 -56 -115 -70 -30 -14 -70 -40 -90 -58 -20 -17 -56 -42
-81 -54 -25 -12 -61 -35 -80 -50 -19 -15 -69 -50 -110 -78 -42 -28 -82 -58
-90 -68 -7 -9 -31 -25 -51 -36 -21 -10 -52 -39 -68 -63 -17 -25 -43 -54 -58
-66 -31 -24 -151 -155 -230 -252 -143 -173 -173 -211 -291 -365 -98 -129 -124
-172 -208 -343 -47 -96 -105 -213 -129 -260 -24 -47 -54 -126 -68 -175 -13
-50 -38 -122 -54 -160 -17 -39 -38 -97 -48 -130 -9 -33 -26 -87 -36 -120 -138
-447 -150 -654 -121 -2015 8 -338 15 -1211 17 -1940 4 -1414 6 -1482 55 -1670
10 -41 31 -124 46 -185 14 -60 48 -167 74 -236 27 -70 62 -171 79 -226 32
-105 136 -324 194 -411 19 -28 43 -73 53 -99 9 -26 36 -75 59 -108 23 -33 56
-87 73 -120 16 -33 40 -69 51 -79 12 -11 38 -47 58 -80 46 -77 72 -110 154
-199 36 -40 70 -80 75 -89 35 -65 341 -359 463 -445 120 -85 281 -189 326
-211 28 -14 68 -38 90 -53 22 -16 77 -44 122 -63 45 -19 105 -51 134 -70 28
-20 84 -46 123 -58 39 -11 105 -38 146 -58 41 -20 100 -45 130 -55 30 -10 112
-39 182 -66 70 -27 188 -63 261 -79 74 -16 154 -37 178 -46 101 -35 204 -54
564 -98 43 -5 494 12 617 24 343 32 318 28 643 100 77 17 165 37 195 44 132
33 428 135 515 179 28 14 78 36 111 50 34 14 86 43 115 65 30 22 83 54 119 72
36 18 82 48 103 67 21 19 58 43 83 53 24 11 70 38 101 62 32 24 81 59 110 78
136 93 357 305 451 436 16 21 72 85 125 140 59 63 126 149 176 225 44 68 98
147 119 174 22 28 57 84 77 125 21 41 48 88 60 105 13 16 33 59 45 95 12 36
40 100 61 143 62 122 135 334 181 522 8 33 24 94 36 135 64 227 99 464 112
755 6 127 12 266 15 310 2 44 7 472 10 950 3 479 10 998 15 1154 9 300 8 310
-37 370 -58 75 31 70 -1289 72 -648 0 -1348 1 -1554 2 -543 2 -1029 -11 -1057
-29 -55 -35 -78 -83 -77 -158 1 -39 1 -255 0 -481 -3 -1224 4 -1505 39 -1579
32 -66 18 -65 650 -66 873 -1 825 18 833 -325 8 -373 -21 -591 -100 -750 -273
-544 -949 -864 -1573 -743 -27 5 -76 13 -108 18 -32 5 -100 25 -150 45 -51 19
-117 45 -147 57 -30 11 -76 36 -101 53 -25 18 -74 48 -107 66 -246 132 -487
484 -598 874 -43 152 -32 4358 12 4575 30 146 83 309 128 392 25 46 54 109 66
141 12 32 39 78 61 103 22 25 49 64 60 86 33 64 234 260 304 297 33 17 79 47
103 66 24 19 69 42 100 51 31 9 88 32 126 51 193 97 749 111 968 24 41 -16
118 -44 171 -61 56 -19 114 -46 135 -63 20 -16 58 -39 83 -51 99 -47 276 -221
327 -321 11 -22 30 -49 42 -60 44 -40 148 -267 179 -392 41 -160 68 -288 76
-350 9 -70 39 -112 100 -143 71 -35 2209 -40 2280 -5 60 30 88 78 82 140 -12
110 -37 294 -51 370 -8 44 -17 118 -21 165 -9 117 -48 308 -96 475 -68 238
-160 475 -216 560 -22 33 -46 78 -53 100 -18 58 -38 95 -75 140 -18 22 -42 60
-54 84 -13 24 -42 65 -65 90 -23 25 -50 60 -61 76 -10 17 -62 83 -114 149 -53
65 -109 136 -126 156 -97 121 -288 319 -336 348 -20 12 -49 38 -64 57 -14 19
-45 45 -68 56 -40 21 -151 97 -240 167 -23 18 -61 45 -85 60 -24 15 -64 44
-90 65 -26 21 -85 57 -132 79 -47 23 -92 47 -100 54 -8 6 -62 33 -119 58 -57
25 -121 57 -142 72 -21 14 -94 43 -161 63 -68 21 -141 47 -163 58 -57 29 -133
49 -255 67 -58 9 -155 26 -215 40 -61 13 -157 29 -215 36 -58 6 -161 18 -230
26 -114 13 -661 18 -770 7z" fill="#00C8BE"/>
    <path d="M19490 5985 c-69 -7 -172 -22 -230 -33 -58 -12 -157 -28 -220 -37
-119 -17 -244 -45 -308 -70 -21 -8 -95 -31 -166 -50 -71 -20 -163 -53 -205
-74 -42 -21 -108 -45 -148 -53 -51 -11 -96 -29 -155 -65 -46 -28 -112 -64
-148 -82 -73 -35 -93 -47 -234 -139 -54 -35 -127 -75 -162 -88 -82 -31 -135
-64 -205 -128 -31 -28 -86 -76 -124 -106 -37 -30 -98 -88 -134 -129 -36 -40
-102 -105 -146 -144 -142 -124 -268 -252 -334 -336 -35 -45 -83 -102 -107
-127 -56 -57 -116 -138 -143 -191 -11 -23 -40 -70 -65 -105 -51 -74 -89 -148
-146 -284 -22 -54 -52 -115 -65 -134 -67 -97 -174 -345 -199 -460 -38 -175
-111 -342 -177 -403 -49 -45 -67 -360 -46 -818 1 -42 -2 -62 -15 -76 -54 -59
208 -70 1612 -66 443 2 2056 3 3585 3 2839 0 3299 4 3330 30 54 45 56 75 39
465 -18 405 -46 577 -116 720 -51 104 -88 197 -120 295 -38 119 -79 201 -161
321 -35 52 -72 117 -82 144 -24 63 -65 134 -121 207 -24 31 -69 103 -101 159
-42 74 -80 124 -138 182 -44 44 -85 92 -90 106 -34 87 -84 146 -255 301 -51
47 -137 126 -190 176 -53 49 -123 110 -155 134 -33 25 -105 86 -159 137 -73
68 -119 102 -172 127 -40 19 -108 57 -152 85 -74 46 -208 114 -312 157 -25 11
-82 42 -127 71 -78 49 -137 73 -212 88 -19 4 -64 20 -100 35 -36 16 -124 42
-196 60 -71 17 -177 47 -233 66 -57 19 -150 41 -205 49 -315 42 -478 66 -522
76 -76 17 -615 20 -765 4z" fill="#00C8BE"/>

    <!-- ORANGE -->
    <path d="M40483 13206 c-61 -28 -58 20 -58 -946 0 -487 4 -1283 9 -1770 5
-614 5 -1061 -4 -1460 -6 -316 -13 -667 -15 -780 -3 -113 -5 -554 -5 -981 -1
-830 2 -894 42 -844 27 35 53 39 101 17 30 -15 73 -22 157 -26 63 -4 140 -9
170 -11 30 -3 384 -8 785 -11 1052 -9 1097 -11 1138 -55 15 -16 27 -36 27 -44
0 -22 16 -18 33 8 8 12 33 35 55 51 50 34 -39 32 962 23 421 -4 979 -2 1240 3
261 5 691 12 955 16 264 4 513 8 553 8 127 3 114 -126 113 1102 -1 663 -5
1072 -11 1095 -18 67 7 64 -534 65 -336 1 -505 5 -536 13 -68 18 -1729 27
-1960 12 -96 -7 -292 -15 -435 -17 -452 -9 -434 -52 -410 936 2 102 7 316 11
475 3 160 9 367 13 462 10 270 -2 263 497 273 187 4 345 10 351 13 14 9 188
24 418 37 245 14 1463 14 1545 -1 143 -24 1126 -38 1425 -20 105 7 272 16 372
21 209 10 254 20 296 61 32 32 31 16 9 219 -36 328 -39 617 -11 999 13 171 13
639 0 706 -6 30 -6 94 -1 164 10 130 6 145 -48 168 -33 15 -335 16 -3067 18
-1666 2 -3282 5 -3590 9 -479 6 -565 5 -592 -8z" fill="#FF6F61"/>
    <path d="M26775 13194 c-71 -26 -80 -42 -56 -98 17 -38 21 -67 20 -149 -1 -56
1 -113 5 -126 3 -13 0 -110 -5 -215 -8 -138 -8 -216 0 -281 36 -297 45 -435
33 -508 -8 -47 -12 -191 -12 -413 1 -188 -2 -352 -5 -366 -31 -121 264 -160
920 -119 555 35 820 18 932 -58 32 -21 87 -49 123 -62 463 -165 796 -765 746
-1345 -38 -443 -50 -523 -87 -576 -11 -15 -31 -57 -44 -93 -39 -103 -59 -136
-111 -187 -27 -25 -68 -69 -92 -97 -27 -32 -66 -63 -100 -80 -31 -16 -66 -39
-77 -51 -11 -13 -45 -35 -77 -50 -31 -15 -71 -39 -88 -53 -50 -43 -111 -75
-161 -86 -25 -6 -79 -24 -120 -40 -124 -50 -307 -60 -1100 -66 -531 -3 -525
-3 -565 -62 -60 -89 -78 -145 -89 -269 -15 -186 -15 -260 1 -376 15 -106 15
-156 6 -407 -7 -185 -8 -311 -2 -356 10 -72 4 -202 -11 -243 -86 -232 27 -485
211 -472 131 10 704 -4 765 -18 54 -13 90 -45 135 -122 14 -24 35 -55 47 -70
13 -15 38 -65 58 -110 19 -46 47 -101 61 -122 15 -21 40 -75 56 -120 16 -45
49 -112 73 -149 25 -37 52 -86 60 -109 8 -23 31 -68 50 -100 20 -32 44 -83 54
-113 10 -29 39 -87 63 -128 25 -41 51 -90 58 -109 8 -19 36 -74 63 -122 27
-48 62 -123 78 -168 15 -44 44 -109 63 -143 19 -34 46 -107 61 -162 15 -57 42
-126 61 -159 20 -33 45 -89 57 -125 11 -36 30 -82 41 -101 10 -19 29 -53 42
-75 12 -22 30 -69 38 -105 9 -36 27 -81 40 -100 12 -19 42 -82 65 -140 24 -58
58 -133 78 -168 19 -34 42 -86 52 -115 10 -28 39 -95 63 -147 25 -52 60 -133
78 -180 19 -47 48 -114 66 -150 17 -36 39 -100 49 -142 12 -55 30 -97 60 -145
30 -46 50 -95 65 -153 22 -88 43 -120 93 -147 41 -21 890 -30 1217 -13 218 11
536 19 1025 23 262 3 302 26 228 133 -14 21 -39 76 -55 122 -16 45 -37 97 -48
115 -22 36 -84 189 -93 228 -4 15 -23 46 -42 69 -34 40 -46 73 -61 155 -8 47
-20 72 -68 143 -19 29 -47 88 -60 130 -14 42 -36 100 -49 127 -14 28 -37 86
-53 130 -15 44 -40 98 -54 120 -41 60 -65 112 -95 203 -15 45 -31 84 -35 87
-5 3 -25 49 -46 103 -21 53 -54 124 -75 157 -21 33 -49 95 -63 138 -14 43 -41
104 -60 135 -19 31 -48 97 -65 145 -37 107 -46 124 -81 162 -16 17 -36 55 -45
85 -26 85 -37 112 -61 150 -12 19 -32 64 -45 99 -13 36 -42 98 -65 138 -23 40
-56 110 -74 156 -18 45 -43 101 -57 123 -13 23 -36 79 -52 125 -16 46 -46 122
-68 169 -22 47 -55 130 -72 185 -18 55 -39 112 -47 127 -8 16 -28 67 -45 114
-17 47 -52 123 -78 169 -26 46 -58 116 -70 157 -12 40 -28 88 -36 106 -32 71
37 195 137 248 15 8 53 36 85 63 32 26 81 58 108 70 28 12 66 37 85 56 19 18
49 41 66 52 86 52 297 252 400 380 41 51 79 95 84 98 6 4 29 32 52 63 22 31
55 73 73 92 17 19 42 62 54 95 12 33 40 88 63 122 22 34 51 97 64 140 13 43
40 101 60 130 23 33 43 81 56 130 11 43 33 99 49 124 31 49 67 160 94 294 9
43 27 97 40 120 35 59 53 159 65 343 5 90 12 168 16 173 32 52 45 621 19 824
-9 66 -20 183 -25 260 -8 131 -37 272 -60 301 -14 15 -59 137 -81 217 -11 37
-33 92 -49 121 -17 29 -41 84 -54 122 -28 82 -51 131 -76 159 -10 11 -28 52
-41 90 -31 99 -160 348 -206 398 -37 42 -114 143 -162 216 -13 20 -56 70 -96
112 -40 42 -96 106 -125 143 -29 37 -76 85 -104 107 -28 22 -70 54 -93 72 -66
51 -214 144 -258 162 -21 10 -57 32 -80 50 -22 18 -65 45 -95 60 -30 15 -84
47 -119 71 -35 24 -68 44 -74 44 -11 0 -401 194 -422 210 -5 4 -19 10 -30 13
-143 40 -200 59 -255 84 -104 48 -153 61 -370 98 -113 19 -253 43 -311 54 -95
18 -165 21 -640 26 -294 3 -694 7 -889 10 -298 3 -361 2 -395 -11z" fill="#FF6F61"/>
    <path d="M15607 6143 c-3 -5 -1 -48 3 -98 4 -49 6 -99 4 -110 -6 -33 -5 -2605
2 -2716 7 -129 11 -149 29 -149 18 0 27 60 25 180 -1 52 -1 689 -1 1415 1
1318 -2 1457 -33 1477 -14 10 -24 10 -29 1z" fill="#FF6F61"/>
    <path d="M24175 6030 c-13 -35 -17 -2892 -5 -2885 6 4 10 13 10 22 0 8 10 54
21 102 15 59 21 114 20 176 -3 196 -3 250 -1 530 1 160 1 352 1 428 -1 76 1
142 4 147 10 16 6 1044 -5 1195 -14 200 -33 319 -45 285z" fill="#FF6F61"/>

    <!-- PURPLE -->
    <path d="M15495 10397 c-11 -8 -33 -17 -50 -21 -16 -4 -47 -21 -68 -37 -21
-17 -70 -42 -110 -57 -40 -14 -83 -33 -97 -42 -14 -10 -43 -24 -64 -31 -22 -8
-68 -40 -103 -71 -35 -32 -78 -64 -96 -71 -17 -8 -62 -41 -99 -73 -142 -127
-193 -170 -221 -191 -50 -37 -135 -114 -235 -213 -54 -52 -142 -134 -197 -181
-97 -84 -262 -250 -490 -494 -140 -150 -174 -185 -205 -210 -14 -12 -41 -42
-60 -68 -19 -27 -58 -78 -87 -115 -29 -37 -99 -138 -157 -224 -58 -86 -124
-177 -146 -202 -46 -54 -55 -91 -51 -201 6 -134 6 -198 2 -3151 -2 -2107 0
-2867 8 -2883 27 -50 8 -49 716 -40 363 4 939 8 1281 8 717 1 661 -7 657 100
-10 302 -11 543 -1 646 13 130 13 276 -2 565 -6 102 -9 770 -9 1485 1 715 2
1320 2 1345 0 25 -6 112 -12 195 -25 329 -29 1628 -10 3710 4 430 4 430 -21
480 -27 54 -44 63 -75 42z" fill="#18182B"/>
    <path d="M40467 6439 c-15 -11 -32 -39 -39 -62 -13 -46 -15 -3195 -3 -3837 4
-205 3 -377 -4 -467 -13 -163 -3 -211 50 -238 39 -21 361 -22 1604 -8 567 6
1589 12 2273 12 684 1 1248 3 1253 7 21 13 1488 17 1821 5 460 -17 435 -34
419 296 -5 114 -10 314 -10 443 0 129 -5 366 -10 525 -5 160 -10 421 -10 580
0 417 -4 432 -104 456 -40 9 -576 12 -2387 14 -2416 2 -2377 1 -2422 43 -46
42 -41 -62 -52 1202 -4 480 -12 869 -17 886 -27 90 -9 89 -1169 98 -404 3
-755 8 -780 10 -25 3 -100 8 -168 12 -90 5 -133 12 -160 25 -46 24 -53 24 -85
-2z" fill="#18182B"/>
    <path d="M23245 4419 c11 -36 45 -79 61 -79 11 0 6 13 -18 46 -39 54 -53 65
-43 33z" fill="#18182B"/>
  </g>
</svg>