<svg xmlns="http://www.w3.org/2000/svg" viewBox="0 0 900 900" fill="none">
  <path fill="#FF3D94" d="M150 230C196 148 286 154 346 96C407 37 482 57 534 112C579 158 649 112 708 166C766 219 742 303 774 360C814 432 779 508 711 544C650 576 674 657 606 694C530 735 470 678 400 713C327 750 246 708 228 623C214 557 139 538 116 468C95 403 134 353 125 303C118 271 128 249 150 230Z" transform="translate(22 28)"/>
  <path fill="#18182B" d="M150 230C196 148 286 154 346 96C407 37 482 57 534 112C579 158 649 112 708 166C766 219 742 303 774 360C814 432 779 508 711 544C650 576 674 657 606 694C530 735 470 678 400 713C327 750 246 708 228 623C214 557 139 538 116 468C95 403 134 353 125 303C118 271 128 249 150 230Z"/>
</svg>
