<svg xmlns="http://www.w3.org/2000/svg" viewBox="0 0 900 900" fill="none">
    <path fill="#FF3D94" d="M157 227C229 91 365 58 463 112c84 46 142-45 254 9 114 55 129 189 67 285-51 79 2 145-57 252-66 118-235 148-344 77-85-55-163 17-253-78-87-92-43-217-10-295 25-59 7-78 37-135Z" transform="translate(20 28)"/>
    <path fill="#00C8BE" d="M157 227C229 91 365 58 463 112c84 46 142-45 254 9 114 55 129 189 67 285-51 79 2 145-57 252-66 118-235 148-344 77-85-55-163 17-253-78-87-92-43-217-10-295 25-59 7-78 37-135Z"/>
  </svg>