<svg xmlns="http://www.w3.org/2000/svg" viewBox="0 0 900 900" fill="none">
  <path fill="#00C8BE" d="M116 302C70 226 135 127 246 119c75-5 113-69 203-39 83 28 109 97 179 101 89 5 160 79 143 167-12 63 70 111 34 194-34 79-121 79-167 135-54 67-132 77-204 31-61-39-126 42-205-12-77-53-66-134-116-187-53-56 40-145 3-207Z" transform="translate(20 27)"/>
  <path fill="#FFC61A" d="M116 302C70 226 135 127 246 119c75-5 113-69 203-39 83 28 109 97 179 101 89 5 160 79 143 167-12 63 70 111 34 194-34 79-121 79-167 135-54 67-132 77-204 31-61-39-126 42-205-12-77-53-66-134-116-187-53-56 40-145 3-207Z"/>
</svg>
