<svg xmlns="http://www.w3.org/2000/svg" viewBox="0 0 900 900" fill="none">
  <path fill="#FFC61A" d="M209 103C282 50 353 105 424 69c78-40 157-10 180 69 18 62 103 52 137 124 36 77-12 131 14 196 33 84-22 167-105 188-68 18-74 104-157 119-90 16-130-55-205-37-84 20-166-42-163-128 2-68-64-94-48-174 15-72 79-87 90-146 12-66-14-139 42-177Z" transform="translate(22 28)"/>
  <path fill="#FF6F61" d="M209 103C282 50 353 105 424 69c78-40 157-10 180 69 18 62 103 52 137 124 36 77-12 131 14 196 33 84-22 167-105 188-68 18-74 104-157 119-90 16-130-55-205-37-84 20-166-42-163-128 2-68-64-94-48-174 15-72 79-87 90-146 12-66-14-139 42-177Z"/>
</svg>
