<svg xmlns="http://www.w3.org/2000/svg" viewBox="0 0 900 900" fill="none">
  <path fill="#FF3D94" d="M150 213C202 125 297 142 349 83c59-67 135-30 185 25 43 47 115-6 174 52 62 61 30 137 66 195 43 69 9 151-63 186-57 28-33 116-106 153-79 40-137-22-205 14-76 40-157-2-174-87-13-66-95-80-113-156-18-74 42-118 21-177-18-52-18-91 16-145Z" transform="translate(22 28)"/>
  <path fill="#18182B" d="M150 213C202 125 297 142 349 83c59-67 135-30 185 25 43 47 115-6 174 52 62 61 30 137 66 195 43 69 9 151-63 186-57 28-33 116-106 153-79 40-137-22-205 14-76 40-157-2-174-87-13-66-95-80-113-156-18-74 42-118 21-177-18-52-18-91 16-145Z"/>
</svg>
